<?xml version="1.0" encoding="UTF-8" standalone="no"?>
<!-- Created with Inkscape (http://www.inkscape.org/) -->

<svg
   xmlns:dc="http://purl.org/dc/elements/1.1/"
   xmlns:cc="http://creativecommons.org/ns#"
   xmlns:rdf="http://www.w3.org/1999/02/22-rdf-syntax-ns#"
   xmlns:svg="http://www.w3.org/2000/svg"
   xmlns="http://www.w3.org/2000/svg"
   xmlns:xlink="http://www.w3.org/1999/xlink"
   xmlns:sodipodi="http://sodipodi.sourceforge.net/DTD/sodipodi-0.dtd"
   xmlns:inkscape="http://www.inkscape.org/namespaces/inkscape"
   version="1.1"
   id="svg850"
   xml:space="preserve"
   width="355.91519"
   height="331.96835"
   viewBox="0 0 355.91519 331.96836"
   sodipodi:docname="Phase_4_Sat_Logo.svg"
   inkscape:version="0.92.4 (5da689c313, 2019-01-14)"><metadata
     id="metadata856"><rdf:RDF><cc:Work
         rdf:about=""><dc:format>image/svg+xml</dc:format><dc:type
           rdf:resource="http://purl.org/dc/dcmitype/StillImage" /><dc:title></dc:title></cc:Work></rdf:RDF></metadata><defs
     id="defs854"><clipPath
       clipPathUnits="userSpaceOnUse"
       id="clipPath866"><path
         d="M 0,340.2 H 340.2 V 0 H 0 Z"
         id="path864"
         inkscape:connector-curvature="0" /></clipPath></defs><sodipodi:namedview
     pagecolor="#ffffff"
     bordercolor="#666666"
     borderopacity="1"
     objecttolerance="10"
     gridtolerance="10"
     guidetolerance="10"
     inkscape:pageopacity="0"
     inkscape:pageshadow="2"
     inkscape:window-width="1366"
     inkscape:window-height="740"
     id="namedview852"
     showgrid="false"
     fit-margin-top="10"
     fit-margin-left="10"
     fit-margin-right="10"
     fit-margin-bottom="10"
     inkscape:zoom="0.89011897"
     inkscape:cx="120.00038"
     inkscape:cy="145.49385"
     inkscape:window-x="0"
     inkscape:window-y="0"
     inkscape:window-maximized="1"
     inkscape:current-layer="g858" /><g
     id="g858"
     inkscape:groupmode="layer"
     inkscape:label="Phase_4_Logo"
     transform="matrix(1.3333333,0,0,-1.3333333,8.0935979,393.3974)"><g
       id="g860"><g
         id="g862"
         clip-path="url(#clipPath866)"><g
           id="g868"
           transform="translate(146.3696,112.2918)"><path
             d="m 0,0 c 0.346,-0.037 0.542,-0.09 0.731,-0.073 3.591,0.317 6.981,1.332 10.155,3.033 6.079,3.257 10.335,8.215 13.242,14.39 2.556,5.43 3.745,11.209 4.074,17.16 0.25,4.515 0.095,9.029 -0.66,13.506 -0.9,5.325 -2.45,10.423 -5.256,15.081 -2.112,3.504 -4.707,6.556 -8.273,8.673 -2.21,1.313 -4.575,2.092 -7.181,1.947 -2.441,-0.134 -4.3,-1.211 -5.286,-3.502 -0.471,-1.094 -0.847,-2.246 -1.117,-3.406 -0.71,-3.052 -0.89,-6.181 -0.892,-9.29 -0.012,-14.15 0.066,-28.299 0.12,-42.449 0.012,-3.237 0.038,-6.475 0.1,-9.713 C -0.209,3.607 -0.087,1.858 0,0 m -14.92,0.716 c 0,0.562 0.003,0.99 -10e-4,1.419 -0.105,13.874 -0.196,27.749 -0.325,41.624 -0.051,5.501 0.323,10.947 1.749,16.284 1.285,4.805 3.242,9.293 6.449,13.144 5.15,6.184 11.715,9.432 19.829,9.146 5.219,-0.185 9.908,-2.068 14.153,-5.052 6.219,-4.372 10.412,-10.305 13.141,-17.328 1.854,-4.772 2.796,-9.733 3.121,-14.843 0.427,-6.7 -0.277,-13.255 -2.243,-19.666 -2,-6.518 -5.27,-12.338 -9.847,-17.4 C 23.131,-0.777 13.103,-5.85 1.534,-8.09 1.066,-8.181 0.605,-8.299 0.045,-8.425 0.009,-8.89 -0.057,-9.317 -0.052,-9.744 c 0.099,-7.676 0.207,-15.352 0.31,-23.028 0.075,-5.557 0.16,-11.114 0.194,-16.671 0.004,-0.56 -0.19,-1.215 -0.515,-1.663 -0.63,-0.866 -1.342,-1.707 -2.155,-2.398 -3.105,-2.644 -6.675,-4.364 -10.695,-5.119 -0.313,-0.059 -0.634,-0.097 -0.952,-0.097 -1.101,-0.002 -1.794,0.681 -1.762,1.794 0.072,2.477 0.199,4.952 0.266,7.43 0.087,3.236 0.184,6.474 0.196,9.712 0.036,9.557 0.032,19.115 0.04,28.673 0.002,1.681 -0.044,1.679 -1.742,1.812 -8.224,0.643 -15.964,2.856 -22.962,7.319 -9.923,6.33 -15.916,15.408 -18.509,26.808 -0.927,4.073 -1.294,8.217 -1.177,12.386 0.312,11.147 4.079,20.924 11.651,29.194 4.007,4.377 8.664,7.925 13.705,10.996 4.037,2.46 8.28,4.52 12.631,6.36 0.364,0.154 0.737,0.288 1.081,0.422 0.618,-0.668 2.495,-4.439 2.822,-5.683 -0.368,-0.223 -0.761,-0.478 -1.168,-0.706 -3.954,-2.216 -7.706,-4.713 -11.046,-7.801 -5.766,-5.332 -9.388,-11.868 -11.003,-19.533 -1.131,-5.368 -1.264,-10.786 -0.736,-16.23 0.522,-5.384 1.876,-10.547 4.334,-15.381 3.749,-7.373 9.247,-12.987 16.851,-16.399 1.381,-0.62 2.847,-1.051 4.283,-1.544 0.322,-0.11 0.68,-0.114 1.19,-0.193"
             style="fill:#8d8d8d;fill-opacity:1;fill-rule:nonzero;stroke:none"
             id="path870"
             inkscape:connector-curvature="0" /></g><g
           id="g872"
           transform="translate(218.3799,213.3196)"><path
             d="M 0,0 C 0.234,1.736 0.155,56.834 -0.152,57.949 -0.291,57.661 -0.34,57.5 -0.435,57.373 -14.543,38.333 -28.654,19.294 -42.765,0.255 -42.785,0.227 -42.784,0.175 -42.777,0.138 -42.77,0.104 -42.74,0.074 -42.693,0 Z m 9.906,-0.087 h 1.346 c 4.759,0 9.517,0.02 14.274,-0.019 0.817,-0.006 1.309,0.258 1.767,0.922 2.021,2.927 4.093,5.821 6.15,8.724 0.339,0.477 0.652,1.015 1.404,0.915 C 35.123,9.934 34.942,9.5 34.709,9.074 32.247,4.59 29.774,0.112 27.328,-4.381 26.83,-5.295 26.062,-5.481 25.12,-5.478 20.522,-5.462 15.924,-5.471 11.325,-5.471 H 9.906 v -1.411 c 0,-13.236 0,-26.472 10e-4,-39.708 0,-0.201 -0.006,-0.401 0.002,-0.6 0.045,-1.079 0.354,-1.532 1.449,-1.72 1.692,-0.289 3.399,-0.493 5.104,-0.698 2.182,-0.263 4.369,-0.482 6.552,-0.738 0.488,-0.057 1.055,-0.046 1.229,-0.812 -0.28,-0.098 -0.517,-0.213 -0.767,-0.26 -0.233,-0.044 -0.479,-0.019 -0.718,-0.019 -11.836,0 -23.671,-0.002 -35.507,0.006 -0.495,10e-4 -0.991,0.094 -1.492,0.144 -0.004,0.845 0.563,0.856 0.999,0.914 1.465,0.199 2.936,0.349 4.405,0.517 2.224,0.254 4.447,0.502 6.67,0.765 0.355,0.042 0.712,0.12 1.055,0.223 0.815,0.247 1.163,0.706 1.22,1.57 0.013,0.199 0.005,0.399 0.005,0.599 v 39.948 1.234 c -0.511,0.017 -0.969,0.044 -1.428,0.044 -15.035,0.002 -30.069,0.002 -45.104,0.002 -0.72,0 -1.439,-0.008 -2.159,0.003 -0.587,0.009 -1.278,-0.147 -1.598,0.524 -0.315,0.662 0.233,1.129 0.574,1.595 1.557,2.131 3.134,4.246 4.706,6.365 16.963,22.858 33.927,45.715 50.892,68.571 0.286,0.385 0.578,0.768 0.904,1.117 0.584,0.626 1.331,0.746 2.092,0.45 0.724,-0.281 0.94,-0.926 0.916,-1.667 C 9.896,71.128 9.906,70.768 9.906,70.408 V 1.669 Z"
             style="fill:#000000;fill-opacity:1;fill-rule:nonzero;stroke:none"
             id="path874"
             inkscape:connector-curvature="0" /></g></g></g><g
       id="g3947"
       transform="matrix(0.23724452,-0.03527096,-0.04203599,-0.28274842,-235.50989,100.12674)"><g
         id="g2850-6-7"
         transform="matrix(1,0.26794919,0,1,835.45975,-514.79717)"><rect
           style="opacity:1;fill:#f2f2f2;fill-opacity:1;stroke:#000000;stroke-width:1.33333337;stroke-linecap:square;stroke-linejoin:miter;stroke-miterlimit:4;stroke-dasharray:none;stroke-dashoffset:0;stroke-opacity:1;paint-order:normal"
           id="rect1491-3-6"
           width="61.890907"
           height="162.25455"
           x="212.43637"
           y="-201.6909" /><path
           style="opacity:1;fill:#002255;fill-opacity:1;stroke:#000000;stroke-width:1.05339837;stroke-linecap:square;stroke-linejoin:miter;stroke-miterlimit:4;stroke-dasharray:none;stroke-dashoffset:0;stroke-opacity:1;paint-order:normal"
           d="m 228.39251,-190.1375 -10.74744,10.7459 v 14.95229 h 51.39638 v -14.95229 l -10.7459,-10.7459 z"
           id="rect1508-2-4"
           inkscape:connector-curvature="0" /><path
           style="opacity:1;fill:#002255;fill-opacity:1;stroke:#000000;stroke-width:1.05339837;stroke-linecap:square;stroke-linejoin:miter;stroke-miterlimit:4;stroke-dasharray:none;stroke-dashoffset:0;stroke-opacity:1;paint-order:normal"
           d="m 228.39251,-164.80716 -10.74744,10.7459 v 14.95229 h 51.39638 v -14.95229 l -10.7459,-10.7459 z"
           id="rect1508-7-0-3"
           inkscape:connector-curvature="0" /><path
           style="opacity:1;fill:#002255;fill-opacity:1;stroke:#000000;stroke-width:1.05339837;stroke-linecap:square;stroke-linejoin:miter;stroke-miterlimit:4;stroke-dasharray:none;stroke-dashoffset:0;stroke-opacity:1;paint-order:normal"
           d="m 228.39251,-139.4769 -10.74744,10.7459 v 14.95229 h 51.39638 V -128.731 l -10.7459,-10.7459 z"
           id="rect1508-5-6-0"
           inkscape:connector-curvature="0" /><path
           style="opacity:1;fill:#002255;fill-opacity:1;stroke:#000000;stroke-width:1.05339837;stroke-linecap:square;stroke-linejoin:miter;stroke-miterlimit:4;stroke-dasharray:none;stroke-dashoffset:0;stroke-opacity:1;paint-order:normal"
           d="m 228.39251,-114.14656 -10.74744,10.7459 v 14.952294 h 51.39638 v -14.952294 l -10.7459,-10.7459 z"
           id="rect1508-7-3-15-3"
           inkscape:connector-curvature="0" /></g><g
         id="g2843-5-0"
         transform="matrix(1,-0.57735027,0,1,852.54261,-344.5435)"><path
           style="opacity:1;fill:#f2f2f2;fill-opacity:1;stroke:#000000;stroke-width:1.33333337;stroke-linecap:square;stroke-linejoin:miter;stroke-miterlimit:4;stroke-dasharray:none;stroke-dashoffset:0;stroke-opacity:1;paint-order:normal"
           d="m 71.572266,-202.23438 v 162.253911 h 61.890624 61.89063 V -202.23438 h -61.89063 z"
           id="rect1491-5-4-9"
           inkscape:connector-curvature="0" /><path
           style="opacity:1;fill:#002255;fill-opacity:1;stroke:#000000;stroke-width:1.05339837;stroke-linecap:square;stroke-linejoin:miter;stroke-miterlimit:4;stroke-dasharray:none;stroke-dashoffset:0;stroke-opacity:1;paint-order:normal"
           d="m 146.46246,-196.95466 -10.74744,10.7459 v 14.95229 h 51.39638 v -14.95229 l -10.7459,-10.7459 z"
           id="rect1508-6-76-2"
           inkscape:connector-curvature="0" /><path
           style="opacity:1;fill:#002255;fill-opacity:1;stroke:#000000;stroke-width:1.05339837;stroke-linecap:square;stroke-linejoin:miter;stroke-miterlimit:4;stroke-dasharray:none;stroke-dashoffset:0;stroke-opacity:1;paint-order:normal"
           d="m 146.46246,-171.62432 -10.74744,10.7459 v 14.95229 h 51.39638 v -14.95229 l -10.7459,-10.7459 z"
           id="rect1508-7-2-5-5"
           inkscape:connector-curvature="0" /><path
           style="opacity:1;fill:#002255;fill-opacity:1;stroke:#000000;stroke-width:1.05339837;stroke-linecap:square;stroke-linejoin:miter;stroke-miterlimit:4;stroke-dasharray:none;stroke-dashoffset:0;stroke-opacity:1;paint-order:normal"
           d="m 146.46246,-146.29406 -10.74744,10.7459 v 14.95229 h 51.39638 v -14.95229 l -10.7459,-10.7459 z"
           id="rect1508-5-9-6-4"
           inkscape:connector-curvature="0" /><path
           style="opacity:1;fill:#002255;fill-opacity:1;stroke:#000000;stroke-width:1.05339837;stroke-linecap:square;stroke-linejoin:miter;stroke-miterlimit:4;stroke-dasharray:none;stroke-dashoffset:0;stroke-opacity:1;paint-order:normal"
           d="m 146.46246,-120.96372 -10.74744,10.7459 v 14.952296 h 51.39638 v -14.952296 l -10.7459,-10.7459 z"
           id="rect1508-7-3-1-9-0"
           inkscape:connector-curvature="0" /><path
           style="opacity:1;fill:#002255;fill-opacity:1;stroke:#000000;stroke-width:1.05339837;stroke-linecap:square;stroke-linejoin:miter;stroke-miterlimit:4;stroke-dasharray:none;stroke-dashoffset:0;stroke-opacity:1;paint-order:normal"
           d="m 89.302736,-196.95465 -10.74744,10.7459 v 14.95229 h 51.396384 v -14.95229 l -10.7459,-10.7459 z"
           id="rect1508-6-7-3-5"
           inkscape:connector-curvature="0" /><path
           style="opacity:1;fill:#002255;fill-opacity:1;stroke:#000000;stroke-width:1.05339837;stroke-linecap:square;stroke-linejoin:miter;stroke-miterlimit:4;stroke-dasharray:none;stroke-dashoffset:0;stroke-opacity:1;paint-order:normal"
           d="m 89.302736,-171.59324 -10.74744,10.7459 v 14.95229 h 51.396384 v -14.95229 l -10.7459,-10.7459 z"
           id="rect1508-7-2-0-7-9"
           inkscape:connector-curvature="0" /><path
           style="opacity:1;fill:#002255;fill-opacity:1;stroke:#000000;stroke-width:1.05339837;stroke-linecap:square;stroke-linejoin:miter;stroke-miterlimit:4;stroke-dasharray:none;stroke-dashoffset:0;stroke-opacity:1;paint-order:normal"
           d="m 89.302736,-146.23179 -10.74744,10.7459 v 14.95229 h 51.396384 v -14.95229 l -10.7459,-10.7459 z"
           id="rect1508-5-9-9-4-4"
           inkscape:connector-curvature="0" /><path
           style="opacity:1;fill:#002255;fill-opacity:1;stroke:#000000;stroke-width:1.05339837;stroke-linecap:square;stroke-linejoin:miter;stroke-miterlimit:4;stroke-dasharray:none;stroke-dashoffset:0;stroke-opacity:1;paint-order:normal"
           d="m 89.302736,-120.87039 -10.74744,10.7459 v 14.952295 h 51.396384 v -14.952295 l -10.7459,-10.7459 z"
           id="rect1508-7-3-1-3-5-6"
           inkscape:connector-curvature="0" /><path
           style="opacity:1;fill:#002255;fill-opacity:1;stroke:#000000;stroke-width:1.05339837;stroke-linecap:square;stroke-linejoin:miter;stroke-miterlimit:4;stroke-dasharray:none;stroke-dashoffset:0;stroke-opacity:1;paint-order:normal"
           d="m 145.60135,-95.477908 -10.74744,10.7459 v 14.952292 h 51.39638 v -14.952292 l -10.7459,-10.7459 z"
           id="rect1508-5-9-1-2-9"
           inkscape:connector-curvature="0" /><path
           style="opacity:1;fill:#002255;fill-opacity:1;stroke:#000000;stroke-width:1.05339837;stroke-linecap:square;stroke-linejoin:miter;stroke-miterlimit:4;stroke-dasharray:none;stroke-dashoffset:0;stroke-opacity:1;paint-order:normal"
           d="m 145.60135,-70.147566 -10.74744,10.7459 v 14.952293 h 51.39638 v -14.952293 l -10.7459,-10.7459 z"
           id="rect1508-7-3-1-8-5-2"
           inkscape:connector-curvature="0" /><path
           style="opacity:1;fill:#002255;fill-opacity:1;stroke:#000000;stroke-width:1.05339837;stroke-linecap:square;stroke-linejoin:miter;stroke-miterlimit:4;stroke-dasharray:none;stroke-dashoffset:0;stroke-opacity:1;paint-order:normal"
           d="m 88.441624,-95.508965 -10.74744,10.7459 v 14.952292 h 51.396386 v -14.952292 l -10.7459,-10.7459 z"
           id="rect1508-5-9-9-7-4-2"
           inkscape:connector-curvature="0" /><path
           style="opacity:1;fill:#002255;fill-opacity:1;stroke:#000000;stroke-width:1.05339837;stroke-linecap:square;stroke-linejoin:miter;stroke-miterlimit:4;stroke-dasharray:none;stroke-dashoffset:0;stroke-opacity:1;paint-order:normal"
           d="m 88.441624,-70.147556 -10.74744,10.7459 v 14.952289 h 51.396386 v -14.952289 l -10.7459,-10.7459 z"
           id="rect1508-7-3-1-3-9-7-4"
           inkscape:connector-curvature="0" /></g><g
         id="g2843-5-9-7"
         transform="matrix(1,-0.57735027,0,1,1097.8532,-490.16621)"><path
           style="opacity:1;fill:#f2f2f2;fill-opacity:1;stroke:#000000;stroke-width:1.33333337;stroke-linecap:square;stroke-linejoin:miter;stroke-miterlimit:4;stroke-dasharray:none;stroke-dashoffset:0;stroke-opacity:1;paint-order:normal"
           d="m 71.572266,-202.23438 v 162.253911 h 61.890624 61.89063 V -202.23438 h -61.89063 z"
           id="rect1491-5-4-7-7"
           inkscape:connector-curvature="0" /><path
           style="opacity:1;fill:#002255;fill-opacity:1;stroke:#000000;stroke-width:1.05339837;stroke-linecap:square;stroke-linejoin:miter;stroke-miterlimit:4;stroke-dasharray:none;stroke-dashoffset:0;stroke-opacity:1;paint-order:normal"
           d="m 146.46246,-196.95466 -10.74744,10.7459 v 14.95229 h 51.39638 v -14.95229 l -10.7459,-10.7459 z"
           id="rect1508-6-76-5-5"
           inkscape:connector-curvature="0" /><path
           style="opacity:1;fill:#002255;fill-opacity:1;stroke:#000000;stroke-width:1.05339837;stroke-linecap:square;stroke-linejoin:miter;stroke-miterlimit:4;stroke-dasharray:none;stroke-dashoffset:0;stroke-opacity:1;paint-order:normal"
           d="m 146.46246,-171.62432 -10.74744,10.7459 v 14.95229 h 51.39638 v -14.95229 l -10.7459,-10.7459 z"
           id="rect1508-7-2-5-3-4"
           inkscape:connector-curvature="0" /><path
           style="opacity:1;fill:#002255;fill-opacity:1;stroke:#000000;stroke-width:1.05339837;stroke-linecap:square;stroke-linejoin:miter;stroke-miterlimit:4;stroke-dasharray:none;stroke-dashoffset:0;stroke-opacity:1;paint-order:normal"
           d="m 146.46246,-146.29406 -10.74744,10.7459 v 14.95229 h 51.39638 v -14.95229 l -10.7459,-10.7459 z"
           id="rect1508-5-9-6-8-8"
           inkscape:connector-curvature="0" /><path
           style="opacity:1;fill:#002255;fill-opacity:1;stroke:#000000;stroke-width:1.05339837;stroke-linecap:square;stroke-linejoin:miter;stroke-miterlimit:4;stroke-dasharray:none;stroke-dashoffset:0;stroke-opacity:1;paint-order:normal"
           d="m 146.46246,-120.96372 -10.74744,10.7459 v 14.952296 h 51.39638 v -14.952296 l -10.7459,-10.7459 z"
           id="rect1508-7-3-1-9-8-1"
           inkscape:connector-curvature="0" /><path
           style="opacity:1;fill:#002255;fill-opacity:1;stroke:#000000;stroke-width:1.05339837;stroke-linecap:square;stroke-linejoin:miter;stroke-miterlimit:4;stroke-dasharray:none;stroke-dashoffset:0;stroke-opacity:1;paint-order:normal"
           d="m 89.302736,-196.95465 -10.74744,10.7459 v 14.95229 h 51.396384 v -14.95229 l -10.7459,-10.7459 z"
           id="rect1508-6-7-3-3-2"
           inkscape:connector-curvature="0" /><path
           style="opacity:1;fill:#002255;fill-opacity:1;stroke:#000000;stroke-width:1.05339837;stroke-linecap:square;stroke-linejoin:miter;stroke-miterlimit:4;stroke-dasharray:none;stroke-dashoffset:0;stroke-opacity:1;paint-order:normal"
           d="m 89.302736,-171.59324 -10.74744,10.7459 v 14.95229 h 51.396384 v -14.95229 l -10.7459,-10.7459 z"
           id="rect1508-7-2-0-7-1-8"
           inkscape:connector-curvature="0" /><path
           style="opacity:1;fill:#002255;fill-opacity:1;stroke:#000000;stroke-width:1.05339837;stroke-linecap:square;stroke-linejoin:miter;stroke-miterlimit:4;stroke-dasharray:none;stroke-dashoffset:0;stroke-opacity:1;paint-order:normal"
           d="m 89.302736,-146.23179 -10.74744,10.7459 v 14.95229 h 51.396384 v -14.95229 l -10.7459,-10.7459 z"
           id="rect1508-5-9-9-4-8-9"
           inkscape:connector-curvature="0" /><path
           style="opacity:1;fill:#002255;fill-opacity:1;stroke:#000000;stroke-width:1.05339837;stroke-linecap:square;stroke-linejoin:miter;stroke-miterlimit:4;stroke-dasharray:none;stroke-dashoffset:0;stroke-opacity:1;paint-order:normal"
           d="m 89.302736,-120.87039 -10.74744,10.7459 v 14.952295 h 51.396384 v -14.952295 l -10.7459,-10.7459 z"
           id="rect1508-7-3-1-3-5-9-3"
           inkscape:connector-curvature="0" /><path
           style="opacity:1;fill:#002255;fill-opacity:1;stroke:#000000;stroke-width:1.05339837;stroke-linecap:square;stroke-linejoin:miter;stroke-miterlimit:4;stroke-dasharray:none;stroke-dashoffset:0;stroke-opacity:1;paint-order:normal"
           d="m 145.60135,-95.477908 -10.74744,10.7459 v 14.952292 h 51.39638 v -14.952292 l -10.7459,-10.7459 z"
           id="rect1508-5-9-1-2-6-6"
           inkscape:connector-curvature="0" /><path
           style="opacity:1;fill:#002255;fill-opacity:1;stroke:#000000;stroke-width:1.05339837;stroke-linecap:square;stroke-linejoin:miter;stroke-miterlimit:4;stroke-dasharray:none;stroke-dashoffset:0;stroke-opacity:1;paint-order:normal"
           d="m 145.60135,-70.147566 -10.74744,10.7459 v 14.952293 h 51.39638 v -14.952293 l -10.7459,-10.7459 z"
           id="rect1508-7-3-1-8-5-4-8"
           inkscape:connector-curvature="0" /><path
           style="opacity:1;fill:#002255;fill-opacity:1;stroke:#000000;stroke-width:1.05339837;stroke-linecap:square;stroke-linejoin:miter;stroke-miterlimit:4;stroke-dasharray:none;stroke-dashoffset:0;stroke-opacity:1;paint-order:normal"
           d="m 88.441624,-95.508965 -10.74744,10.7459 v 14.952292 h 51.396386 v -14.952292 l -10.7459,-10.7459 z"
           id="rect1508-5-9-9-7-4-3-0"
           inkscape:connector-curvature="0" /><path
           style="opacity:1;fill:#002255;fill-opacity:1;stroke:#000000;stroke-width:1.05339837;stroke-linecap:square;stroke-linejoin:miter;stroke-miterlimit:4;stroke-dasharray:none;stroke-dashoffset:0;stroke-opacity:1;paint-order:normal"
           d="m 88.441624,-70.147556 -10.74744,10.7459 v 14.952289 h 51.396386 v -14.952289 l -10.7459,-10.7459 z"
           id="rect1508-7-3-1-3-9-7-3-2"
           inkscape:connector-curvature="0" /></g><g
         id="g2798-2-1"
         transform="matrix(1,-0.57735027,0,1,815.65582,-252.00582)"><path
           inkscape:connector-curvature="0"
           style="opacity:1;fill:#f2f2f2;fill-opacity:1;stroke:#000000;stroke-width:1.33333337;stroke-linecap:square;stroke-linejoin:miter;stroke-miterlimit:4;stroke-dasharray:none;stroke-dashoffset:0;stroke-opacity:1;paint-order:normal"
           d="m 294.13121,-221.15976 v 162.253912 h 61.89063 61.89062 V -221.15976 h -61.89062 z"
           id="rect1491-5-2-6-0-0" /><rect
           style="opacity:1;fill:#ffcc00;fill-opacity:1;stroke:#ffcc00;stroke-width:1.33333337;stroke-linecap:square;stroke-linejoin:miter;stroke-miterlimit:4;stroke-dasharray:none;stroke-dashoffset:0;stroke-opacity:1;paint-order:normal"
           id="rect1756-6-5"
           width="7.1090908"
           height="7.1090908"
           x="301.53012"
           y="-215.20392"
           inkscape:tile-cx="303.90187"
           inkscape:tile-cy="-208.39669"
           inkscape:tile-w="8.4424242"
           inkscape:tile-h="8.4424242"
           inkscape:tile-x0="299.68065"
           inkscape:tile-y0="-212.6179" /><use
           x="0"
           y="0"
           inkscape:tiled-clone-of="#rect1756-6-5"
           xlink:href="#rect1756-6-5"
           id="use1954-8-1"
           width="100%"
           height="100%" /><use
           x="0"
           y="0"
           inkscape:tiled-clone-of="#rect1756-6-5"
           xlink:href="#rect1756-6-5"
           transform="translate(0,16.884848)"
           id="use1956-9-1"
           width="100%"
           height="100%" /><use
           x="0"
           y="0"
           inkscape:tiled-clone-of="#rect1756-6-5"
           xlink:href="#rect1756-6-5"
           transform="translate(0,33.769697)"
           id="use1958-2-0"
           width="100%"
           height="100%" /><use
           x="0"
           y="0"
           inkscape:tiled-clone-of="#rect1756-6-5"
           xlink:href="#rect1756-6-5"
           transform="translate(0,50.654545)"
           id="use1960-6-8"
           width="100%"
           height="100%" /><use
           x="0"
           y="0"
           inkscape:tiled-clone-of="#rect1756-6-5"
           xlink:href="#rect1756-6-5"
           transform="translate(0,67.539393)"
           id="use1962-6-5"
           width="100%"
           height="100%" /><use
           x="0"
           y="0"
           inkscape:tiled-clone-of="#rect1756-6-5"
           xlink:href="#rect1756-6-5"
           transform="translate(16.884848)"
           id="use1964-4-0"
           width="100%"
           height="100%" /><use
           x="0"
           y="0"
           inkscape:tiled-clone-of="#rect1756-6-5"
           xlink:href="#rect1756-6-5"
           transform="translate(16.884848,16.884848)"
           id="use1966-9-6"
           width="100%"
           height="100%" /><use
           x="0"
           y="0"
           inkscape:tiled-clone-of="#rect1756-6-5"
           xlink:href="#rect1756-6-5"
           transform="translate(16.884848,33.769697)"
           id="use1968-5-4"
           width="100%"
           height="100%" /><use
           x="0"
           y="0"
           inkscape:tiled-clone-of="#rect1756-6-5"
           xlink:href="#rect1756-6-5"
           transform="translate(16.884848,50.654545)"
           id="use1970-0-6"
           width="100%"
           height="100%" /><use
           x="0"
           y="0"
           inkscape:tiled-clone-of="#rect1756-6-5"
           xlink:href="#rect1756-6-5"
           transform="translate(16.884848,67.539393)"
           id="use1972-4-2"
           width="100%"
           height="100%" /><use
           x="0"
           y="0"
           inkscape:tiled-clone-of="#rect1756-6-5"
           xlink:href="#rect1756-6-5"
           transform="translate(33.769697)"
           id="use1974-8-5"
           width="100%"
           height="100%" /><use
           x="0"
           y="0"
           inkscape:tiled-clone-of="#rect1756-6-5"
           xlink:href="#rect1756-6-5"
           transform="translate(33.769697,16.884848)"
           id="use1976-7-8"
           width="100%"
           height="100%" /><use
           x="0"
           y="0"
           inkscape:tiled-clone-of="#rect1756-6-5"
           xlink:href="#rect1756-6-5"
           transform="translate(33.769697,33.769697)"
           id="use1978-1-6"
           width="100%"
           height="100%" /><use
           x="0"
           y="0"
           inkscape:tiled-clone-of="#rect1756-6-5"
           xlink:href="#rect1756-6-5"
           transform="translate(33.769697,50.654545)"
           id="use1980-7-2"
           width="100%"
           height="100%" /><use
           x="0"
           y="0"
           inkscape:tiled-clone-of="#rect1756-6-5"
           xlink:href="#rect1756-6-5"
           transform="translate(33.769697,67.539393)"
           id="use1982-2-8"
           width="100%"
           height="100%" /><use
           x="0"
           y="0"
           inkscape:tiled-clone-of="#rect1756-6-5"
           xlink:href="#rect1756-6-5"
           transform="translate(50.654545)"
           id="use1984-7-4"
           width="100%"
           height="100%" /><use
           x="0"
           y="0"
           inkscape:tiled-clone-of="#rect1756-6-5"
           xlink:href="#rect1756-6-5"
           transform="translate(50.654545,16.884848)"
           id="use1986-2-7"
           width="100%"
           height="100%" /><use
           x="0"
           y="0"
           inkscape:tiled-clone-of="#rect1756-6-5"
           xlink:href="#rect1756-6-5"
           transform="translate(50.654545,33.769697)"
           id="use1988-2-2"
           width="100%"
           height="100%" /><use
           x="0"
           y="0"
           inkscape:tiled-clone-of="#rect1756-6-5"
           xlink:href="#rect1756-6-5"
           transform="translate(50.654545,50.654545)"
           id="use1990-6-4"
           width="100%"
           height="100%" /><use
           x="0"
           y="0"
           inkscape:tiled-clone-of="#rect1756-6-5"
           xlink:href="#rect1756-6-5"
           transform="translate(50.654545,67.539393)"
           id="use1992-1-0"
           width="100%"
           height="100%" /><use
           x="0"
           y="0"
           inkscape:tiled-clone-of="#rect1756-6-5"
           xlink:href="#rect1756-6-5"
           transform="translate(67.539393)"
           id="use1994-0-6"
           width="100%"
           height="100%" /><use
           x="0"
           y="0"
           inkscape:tiled-clone-of="#rect1756-6-5"
           xlink:href="#rect1756-6-5"
           transform="translate(67.539393,16.884848)"
           id="use1996-6-2"
           width="100%"
           height="100%" /><use
           x="0"
           y="0"
           inkscape:tiled-clone-of="#rect1756-6-5"
           xlink:href="#rect1756-6-5"
           transform="translate(67.539393,33.769697)"
           id="use1998-1-9"
           width="100%"
           height="100%" /><use
           x="0"
           y="0"
           inkscape:tiled-clone-of="#rect1756-6-5"
           xlink:href="#rect1756-6-5"
           transform="translate(67.539393,50.654545)"
           id="use2000-5-9"
           width="100%"
           height="100%" /><use
           x="0"
           y="0"
           inkscape:tiled-clone-of="#rect1756-6-5"
           xlink:href="#rect1756-6-5"
           transform="translate(67.539393,67.539393)"
           id="use2002-9-0"
           width="100%"
           height="100%" /><use
           x="0"
           y="0"
           inkscape:tiled-clone-of="#rect1756-6-5"
           xlink:href="#rect1756-6-5"
           transform="translate(84.424242)"
           id="use2004-4-8"
           width="100%"
           height="100%" /><use
           x="0"
           y="0"
           inkscape:tiled-clone-of="#rect1756-6-5"
           xlink:href="#rect1756-6-5"
           transform="translate(84.424242,16.884848)"
           id="use2006-9-1"
           width="100%"
           height="100%" /><use
           x="0"
           y="0"
           inkscape:tiled-clone-of="#rect1756-6-5"
           xlink:href="#rect1756-6-5"
           transform="translate(84.424242,33.769697)"
           id="use2008-0-3"
           width="100%"
           height="100%" /><use
           x="0"
           y="0"
           inkscape:tiled-clone-of="#rect1756-6-5"
           xlink:href="#rect1756-6-5"
           transform="translate(84.424242,50.654545)"
           id="use2010-9-1"
           width="100%"
           height="100%" /><use
           x="0"
           y="0"
           inkscape:tiled-clone-of="#rect1756-6-5"
           xlink:href="#rect1756-6-5"
           transform="translate(84.424242,67.539393)"
           id="use2012-1-1"
           width="100%"
           height="100%" /><use
           x="0"
           y="0"
           inkscape:tiled-clone-of="#rect1756-6-5"
           xlink:href="#rect1756-6-5"
           transform="translate(101.30909)"
           id="use2014-7-0"
           width="100%"
           height="100%" /><use
           x="0"
           y="0"
           inkscape:tiled-clone-of="#rect1756-6-5"
           xlink:href="#rect1756-6-5"
           transform="translate(101.30909,16.884848)"
           id="use2016-7-3"
           width="100%"
           height="100%" /><use
           x="0"
           y="0"
           inkscape:tiled-clone-of="#rect1756-6-5"
           xlink:href="#rect1756-6-5"
           transform="translate(101.30909,33.769697)"
           id="use2018-1-4"
           width="100%"
           height="100%" /><use
           x="0"
           y="0"
           inkscape:tiled-clone-of="#rect1756-6-5"
           xlink:href="#rect1756-6-5"
           transform="translate(101.30909,50.654545)"
           id="use2020-1-0"
           width="100%"
           height="100%" /><use
           x="0"
           y="0"
           inkscape:tiled-clone-of="#rect1756-6-5"
           xlink:href="#rect1756-6-5"
           transform="translate(101.30909,67.539393)"
           id="use2022-5-3"
           width="100%"
           height="100%" /><rect
           style="opacity:1;fill:#ffcc00;fill-opacity:1;stroke:#ffcc00;stroke-width:0.81962758;stroke-linecap:square;stroke-linejoin:miter;stroke-miterlimit:4;stroke-dasharray:none;stroke-dashoffset:0;stroke-opacity:1;paint-order:normal"
           id="rect1756-1-9-9"
           width="4.3701053"
           height="4.3701053"
           x="300.46307"
           y="-132.01624"
           inkscape:tile-cx="303.90187"
           inkscape:tile-cy="-208.39669"
           inkscape:tile-w="8.4424242"
           inkscape:tile-h="8.4424242"
           inkscape:tile-x0="299.68065"
           inkscape:tile-y0="-212.6179" /><use
           x="0"
           y="0"
           inkscape:tiled-clone-of="#rect1756-1-9-9"
           xlink:href="#rect1756-1-9-9"
           id="use2580-7-1"
           width="100%"
           height="100%" /><use
           x="0"
           y="0"
           inkscape:tiled-clone-of="#rect1756-1-9-9"
           xlink:href="#rect1756-1-9-9"
           transform="translate(0,11.819394)"
           id="use2582-7-9"
           width="100%"
           height="100%" /><use
           x="0"
           y="0"
           inkscape:tiled-clone-of="#rect1756-1-9-9"
           xlink:href="#rect1756-1-9-9"
           transform="translate(0,23.638788)"
           id="use2584-6-6"
           width="100%"
           height="100%" /><use
           x="0"
           y="0"
           inkscape:tiled-clone-of="#rect1756-1-9-9"
           xlink:href="#rect1756-1-9-9"
           transform="translate(0,35.458182)"
           id="use2586-7-9"
           width="100%"
           height="100%" /><use
           x="0"
           y="0"
           inkscape:tiled-clone-of="#rect1756-1-9-9"
           xlink:href="#rect1756-1-9-9"
           transform="translate(0,47.277576)"
           id="use2588-3-3"
           width="100%"
           height="100%" /><use
           x="0"
           y="0"
           inkscape:tiled-clone-of="#rect1756-1-9-9"
           xlink:href="#rect1756-1-9-9"
           transform="translate(0,59.096969)"
           id="use2590-6-3"
           width="100%"
           height="100%" /><use
           x="0"
           y="0"
           inkscape:tiled-clone-of="#rect1756-1-9-9"
           xlink:href="#rect1756-1-9-9"
           transform="translate(11.819394)"
           id="use2592-5-8"
           width="100%"
           height="100%" /><use
           x="0"
           y="0"
           inkscape:tiled-clone-of="#rect1756-1-9-9"
           xlink:href="#rect1756-1-9-9"
           transform="translate(11.819394,11.819394)"
           id="use2594-6-0"
           width="100%"
           height="100%" /><use
           x="0"
           y="0"
           inkscape:tiled-clone-of="#rect1756-1-9-9"
           xlink:href="#rect1756-1-9-9"
           transform="translate(11.819394,23.638788)"
           id="use2596-3-5"
           width="100%"
           height="100%" /><use
           x="0"
           y="0"
           inkscape:tiled-clone-of="#rect1756-1-9-9"
           xlink:href="#rect1756-1-9-9"
           transform="translate(11.819394,35.458182)"
           id="use2598-9-6"
           width="100%"
           height="100%" /><use
           x="0"
           y="0"
           inkscape:tiled-clone-of="#rect1756-1-9-9"
           xlink:href="#rect1756-1-9-9"
           transform="translate(11.819394,47.277576)"
           id="use2600-4-6"
           width="100%"
           height="100%" /><use
           x="0"
           y="0"
           inkscape:tiled-clone-of="#rect1756-1-9-9"
           xlink:href="#rect1756-1-9-9"
           transform="translate(11.819394,59.096969)"
           id="use2602-8-4"
           width="100%"
           height="100%" /><use
           x="0"
           y="0"
           inkscape:tiled-clone-of="#rect1756-1-9-9"
           xlink:href="#rect1756-1-9-9"
           transform="translate(23.638788)"
           id="use2604-1-0"
           width="100%"
           height="100%" /><use
           x="0"
           y="0"
           inkscape:tiled-clone-of="#rect1756-1-9-9"
           xlink:href="#rect1756-1-9-9"
           transform="translate(23.638788,11.819394)"
           id="use2606-2-0"
           width="100%"
           height="100%" /><use
           x="0"
           y="0"
           inkscape:tiled-clone-of="#rect1756-1-9-9"
           xlink:href="#rect1756-1-9-9"
           transform="translate(23.638788,23.638788)"
           id="use2608-9-4"
           width="100%"
           height="100%" /><use
           x="0"
           y="0"
           inkscape:tiled-clone-of="#rect1756-1-9-9"
           xlink:href="#rect1756-1-9-9"
           transform="translate(23.638788,35.458182)"
           id="use2610-3-6"
           width="100%"
           height="100%" /><use
           x="0"
           y="0"
           inkscape:tiled-clone-of="#rect1756-1-9-9"
           xlink:href="#rect1756-1-9-9"
           transform="translate(23.638788,47.277576)"
           id="use2612-9-2"
           width="100%"
           height="100%" /><use
           x="0"
           y="0"
           inkscape:tiled-clone-of="#rect1756-1-9-9"
           xlink:href="#rect1756-1-9-9"
           transform="translate(23.638788,59.096969)"
           id="use2614-0-6"
           width="100%"
           height="100%" /><use
           x="0"
           y="0"
           inkscape:tiled-clone-of="#rect1756-1-9-9"
           xlink:href="#rect1756-1-9-9"
           transform="translate(35.458182)"
           id="use2616-8-7"
           width="100%"
           height="100%" /><use
           x="0"
           y="0"
           inkscape:tiled-clone-of="#rect1756-1-9-9"
           xlink:href="#rect1756-1-9-9"
           transform="translate(35.458182,11.819394)"
           id="use2618-8-5"
           width="100%"
           height="100%" /><use
           x="0"
           y="0"
           inkscape:tiled-clone-of="#rect1756-1-9-9"
           xlink:href="#rect1756-1-9-9"
           transform="translate(35.458182,23.638788)"
           id="use2620-5-6"
           width="100%"
           height="100%" /><use
           x="0"
           y="0"
           inkscape:tiled-clone-of="#rect1756-1-9-9"
           xlink:href="#rect1756-1-9-9"
           transform="translate(35.458182,35.458182)"
           id="use2622-0-9"
           width="100%"
           height="100%" /><use
           x="0"
           y="0"
           inkscape:tiled-clone-of="#rect1756-1-9-9"
           xlink:href="#rect1756-1-9-9"
           transform="translate(35.458182,47.277576)"
           id="use2624-9-8"
           width="100%"
           height="100%" /><use
           x="0"
           y="0"
           inkscape:tiled-clone-of="#rect1756-1-9-9"
           xlink:href="#rect1756-1-9-9"
           transform="translate(35.458182,59.096969)"
           id="use2626-6-7"
           width="100%"
           height="100%" /><use
           x="0"
           y="0"
           inkscape:tiled-clone-of="#rect1756-1-9-9"
           xlink:href="#rect1756-1-9-9"
           transform="translate(47.277576)"
           id="use2628-3-2"
           width="100%"
           height="100%" /><use
           x="0"
           y="0"
           inkscape:tiled-clone-of="#rect1756-1-9-9"
           xlink:href="#rect1756-1-9-9"
           transform="translate(47.277576,11.819394)"
           id="use2630-8-8"
           width="100%"
           height="100%" /><use
           x="0"
           y="0"
           inkscape:tiled-clone-of="#rect1756-1-9-9"
           xlink:href="#rect1756-1-9-9"
           transform="translate(47.277576,23.638788)"
           id="use2632-5-2"
           width="100%"
           height="100%" /><use
           x="0"
           y="0"
           inkscape:tiled-clone-of="#rect1756-1-9-9"
           xlink:href="#rect1756-1-9-9"
           transform="translate(47.277576,35.458182)"
           id="use2634-6-9"
           width="100%"
           height="100%" /><use
           x="0"
           y="0"
           inkscape:tiled-clone-of="#rect1756-1-9-9"
           xlink:href="#rect1756-1-9-9"
           transform="translate(47.277576,47.277576)"
           id="use2636-1-9"
           width="100%"
           height="100%" /><use
           x="0"
           y="0"
           inkscape:tiled-clone-of="#rect1756-1-9-9"
           xlink:href="#rect1756-1-9-9"
           transform="translate(47.277576,59.096969)"
           id="use2638-1-6"
           width="100%"
           height="100%" /><use
           x="0"
           y="0"
           inkscape:tiled-clone-of="#rect1756-1-9-9"
           xlink:href="#rect1756-1-9-9"
           transform="translate(59.096969)"
           id="use2640-5-0"
           width="100%"
           height="100%" /><use
           x="0"
           y="0"
           inkscape:tiled-clone-of="#rect1756-1-9-9"
           xlink:href="#rect1756-1-9-9"
           transform="translate(59.096969,11.819394)"
           id="use2642-9-2"
           width="100%"
           height="100%" /><use
           x="0"
           y="0"
           inkscape:tiled-clone-of="#rect1756-1-9-9"
           xlink:href="#rect1756-1-9-9"
           transform="translate(59.096969,23.638788)"
           id="use2644-8-7"
           width="100%"
           height="100%" /><use
           x="0"
           y="0"
           inkscape:tiled-clone-of="#rect1756-1-9-9"
           xlink:href="#rect1756-1-9-9"
           transform="translate(59.096969,35.458182)"
           id="use2646-4-6"
           width="100%"
           height="100%" /><use
           x="0"
           y="0"
           inkscape:tiled-clone-of="#rect1756-1-9-9"
           xlink:href="#rect1756-1-9-9"
           transform="translate(59.096969,47.277576)"
           id="use2648-8-1"
           width="100%"
           height="100%" /><use
           x="0"
           y="0"
           inkscape:tiled-clone-of="#rect1756-1-9-9"
           xlink:href="#rect1756-1-9-9"
           transform="translate(59.096969,59.096969)"
           id="use2650-1-3"
           width="100%"
           height="100%" /><use
           x="0"
           y="0"
           inkscape:tiled-clone-of="#rect1756-1-9-9"
           xlink:href="#rect1756-1-9-9"
           transform="translate(70.916363)"
           id="use2652-0-2"
           width="100%"
           height="100%" /><use
           x="0"
           y="0"
           inkscape:tiled-clone-of="#rect1756-1-9-9"
           xlink:href="#rect1756-1-9-9"
           transform="translate(70.916363,11.819394)"
           id="use2654-3-1"
           width="100%"
           height="100%" /><use
           x="0"
           y="0"
           inkscape:tiled-clone-of="#rect1756-1-9-9"
           xlink:href="#rect1756-1-9-9"
           transform="translate(70.916363,23.638788)"
           id="use2656-0-5"
           width="100%"
           height="100%" /><use
           x="0"
           y="0"
           inkscape:tiled-clone-of="#rect1756-1-9-9"
           xlink:href="#rect1756-1-9-9"
           transform="translate(70.916363,35.458182)"
           id="use2658-4-9"
           width="100%"
           height="100%" /><use
           x="0"
           y="0"
           inkscape:tiled-clone-of="#rect1756-1-9-9"
           xlink:href="#rect1756-1-9-9"
           transform="translate(70.916363,47.277576)"
           id="use2660-4-9"
           width="100%"
           height="100%" /><use
           x="0"
           y="0"
           inkscape:tiled-clone-of="#rect1756-1-9-9"
           xlink:href="#rect1756-1-9-9"
           transform="translate(70.916363,59.096969)"
           id="use2662-4-1"
           width="100%"
           height="100%" /><use
           x="0"
           y="0"
           inkscape:tiled-clone-of="#rect1756-1-9-9"
           xlink:href="#rect1756-1-9-9"
           transform="translate(82.735757)"
           id="use2664-4-4"
           width="100%"
           height="100%" /><use
           x="0"
           y="0"
           inkscape:tiled-clone-of="#rect1756-1-9-9"
           xlink:href="#rect1756-1-9-9"
           transform="translate(82.735757,11.819394)"
           id="use2666-7-9"
           width="100%"
           height="100%" /><use
           x="0"
           y="0"
           inkscape:tiled-clone-of="#rect1756-1-9-9"
           xlink:href="#rect1756-1-9-9"
           transform="translate(82.735757,23.638788)"
           id="use2668-6-1"
           width="100%"
           height="100%" /><use
           x="0"
           y="0"
           inkscape:tiled-clone-of="#rect1756-1-9-9"
           xlink:href="#rect1756-1-9-9"
           transform="translate(82.735757,35.458182)"
           id="use2670-3-0"
           width="100%"
           height="100%" /><use
           x="0"
           y="0"
           inkscape:tiled-clone-of="#rect1756-1-9-9"
           xlink:href="#rect1756-1-9-9"
           transform="translate(82.735757,47.277576)"
           id="use2672-1-7"
           width="100%"
           height="100%" /><use
           x="0"
           y="0"
           inkscape:tiled-clone-of="#rect1756-1-9-9"
           xlink:href="#rect1756-1-9-9"
           transform="translate(82.735757,59.096969)"
           id="use2674-7-5"
           width="100%"
           height="100%" /><use
           x="0"
           y="0"
           inkscape:tiled-clone-of="#rect1756-1-9-9"
           xlink:href="#rect1756-1-9-9"
           transform="translate(94.555151)"
           id="use2676-5-8"
           width="100%"
           height="100%" /><use
           x="0"
           y="0"
           inkscape:tiled-clone-of="#rect1756-1-9-9"
           xlink:href="#rect1756-1-9-9"
           transform="translate(94.555151,11.819394)"
           id="use2678-9-7"
           width="100%"
           height="100%" /><use
           x="0"
           y="0"
           inkscape:tiled-clone-of="#rect1756-1-9-9"
           xlink:href="#rect1756-1-9-9"
           transform="translate(94.555151,23.638788)"
           id="use2680-6-0"
           width="100%"
           height="100%" /><use
           x="0"
           y="0"
           inkscape:tiled-clone-of="#rect1756-1-9-9"
           xlink:href="#rect1756-1-9-9"
           transform="translate(94.555151,35.458182)"
           id="use2682-2-4"
           width="100%"
           height="100%" /><use
           x="0"
           y="0"
           inkscape:tiled-clone-of="#rect1756-1-9-9"
           xlink:href="#rect1756-1-9-9"
           transform="translate(94.555151,47.277576)"
           id="use2684-1-8"
           width="100%"
           height="100%" /><use
           x="0"
           y="0"
           inkscape:tiled-clone-of="#rect1756-1-9-9"
           xlink:href="#rect1756-1-9-9"
           transform="translate(94.555151,59.096969)"
           id="use2686-7-0"
           width="100%"
           height="100%" /><use
           x="0"
           y="0"
           inkscape:tiled-clone-of="#rect1756-1-9-9"
           xlink:href="#rect1756-1-9-9"
           transform="translate(106.37454)"
           id="use2688-8-4"
           width="100%"
           height="100%" /><use
           x="0"
           y="0"
           inkscape:tiled-clone-of="#rect1756-1-9-9"
           xlink:href="#rect1756-1-9-9"
           transform="translate(106.37454,11.819394)"
           id="use2690-5-2"
           width="100%"
           height="100%" /><use
           x="0"
           y="0"
           inkscape:tiled-clone-of="#rect1756-1-9-9"
           xlink:href="#rect1756-1-9-9"
           transform="translate(106.37454,23.638788)"
           id="use2692-7-9"
           width="100%"
           height="100%" /><use
           x="0"
           y="0"
           inkscape:tiled-clone-of="#rect1756-1-9-9"
           xlink:href="#rect1756-1-9-9"
           transform="translate(106.37454,35.458182)"
           id="use2694-4-6"
           width="100%"
           height="100%" /><use
           x="0"
           y="0"
           inkscape:tiled-clone-of="#rect1756-1-9-9"
           xlink:href="#rect1756-1-9-9"
           transform="translate(106.37454,47.277576)"
           id="use2696-1-1"
           width="100%"
           height="100%" /><use
           x="0"
           y="0"
           inkscape:tiled-clone-of="#rect1756-1-9-9"
           xlink:href="#rect1756-1-9-9"
           transform="translate(106.37454,59.096969)"
           id="use2698-8-0"
           width="100%"
           height="100%" /></g><path
         inkscape:connector-curvature="0"
         id="path3350-4"
         d="m 1047.8961,-659.56593 121.5294,-74.15694 64.1428,19.27542 -123.7813,71.46514 z"
         style="fill:#f2f2f2;fill-opacity:1;stroke:#000000;stroke-width:1px;stroke-linecap:butt;stroke-linejoin:miter;stroke-opacity:1" /><path
         sodipodi:nodetypes="cc"
         inkscape:connector-curvature="0"
         id="path3352-2"
         d="M 1047.8961,-659.56529 880.84154,-712.36296"
         style="fill:none;stroke:#000000;stroke-width:3;stroke-linecap:butt;stroke-linejoin:miter;stroke-miterlimit:4;stroke-dasharray:none;stroke-opacity:1" /><path
         sodipodi:nodetypes="cc"
         inkscape:connector-curvature="0"
         id="path3352-8-2"
         d="m 1169.4255,-733.72287 -167.0546,-52.79767"
         style="fill:none;stroke:#000000;stroke-width:3;stroke-linecap:butt;stroke-linejoin:miter;stroke-miterlimit:4;stroke-dasharray:none;stroke-opacity:1" /><path
         sodipodi:nodetypes="cc"
         inkscape:connector-curvature="0"
         id="path3352-89-2"
         d="m 1260.8099,-582.92692 -167.0546,-52.79767"
         style="fill:none;stroke:#000000;stroke-width:3;stroke-linecap:butt;stroke-linejoin:miter;stroke-miterlimit:4;stroke-dasharray:none;stroke-opacity:1" /><path
         sodipodi:nodetypes="cc"
         inkscape:connector-curvature="0"
         id="path3352-7-0"
         d="M 1394.8595,-658.29123 1227.8049,-711.0889"
         style="fill:none;stroke:#000000;stroke-width:3;stroke-linecap:butt;stroke-linejoin:miter;stroke-miterlimit:4;stroke-dasharray:none;stroke-opacity:1" /></g></g></svg>